<svg version="1.1" id="Layer_1" xmlns="http://www.w3.org/2000/svg" xmlns:xlink="http://www.w3.org/1999/xlink" x="0px" y="0px"
	 width="100%" viewBox="0 0 174 75" enable-background="new 0 0 174 75" xml:space="preserve">
<path fill="#020101" opacity="1.000000" stroke="none" 
	d="
M30.000000,76.000000 
	C20.363632,76.000000 10.727265,76.000000 1.045449,76.000000 
	C1.045449,51.108727 1.045449,26.217356 1.045449,1.000000 
	C12.685540,1.000000 24.374111,1.000000 36.531425,1.468152 
	C36.664772,12.248617 36.329384,22.560928 35.692856,33.077469 
	C32.345970,34.591412 29.147743,35.643974 26.319704,37.320850 
	C24.934656,38.142113 23.457050,40.119720 23.449966,41.580902 
	C23.442974,43.023033 24.957575,44.870995 26.309456,45.827248 
	C28.303947,47.238056 30.745481,48.016861 32.997669,49.511894 
	C31.999138,58.639313 30.999569,67.319656 30.000000,76.000000 
z"/>
<path fill="#11100E" opacity="1.000000" stroke="none" 
	d="
M175.000000,59.000000 
	C175.000000,64.637680 175.000000,70.275368 175.000000,76.000000 
	C152.312500,76.000000 129.624908,76.000000 106.427567,75.648773 
	C102.583199,71.336121 99.373283,67.260017 95.871460,63.452377 
	C93.411072,60.777126 90.553192,58.467442 87.734940,55.559109 
	C87.861504,50.973103 86.002167,46.101788 91.367065,43.581898 
	C96.881546,49.503258 97.857750,61.106262 110.118210,58.365112 
	C110.985130,59.578255 111.859070,61.013210 112.688736,60.988052 
	C113.869858,60.952236 115.523056,60.125523 116.074890,59.135300 
	C117.188896,57.136292 117.712029,54.804653 118.452309,52.601288 
	C122.083824,41.792515 125.706635,30.980814 129.436127,19.861216 
	C127.545990,19.543299 126.271881,19.328995 124.998245,18.655563 
	C125.665825,12.464293 126.332916,6.732147 127.000000,1.000000 
	C133.021149,1.000000 139.042297,1.000000 145.531494,1.421105 
	C145.751129,3.456655 145.521561,5.074265 145.251114,6.685014 
	C143.841858,15.078548 142.422211,23.470339 140.646088,31.842960 
	C138.033798,30.900717 135.781555,29.978243 133.568573,29.071846 
	C131.819458,34.261257 133.388489,36.982178 138.396637,38.091110 
	C141.413956,38.759228 144.258377,40.208267 147.924728,41.586063 
	C144.111130,42.979717 141.230789,44.360184 138.193665,45.068237 
	C133.170227,46.239372 131.915985,49.078320 133.605530,53.920895 
	C136.439636,52.926502 139.216980,51.952023 142.004608,51.363632 
	C145.108032,64.264359 151.387634,67.623657 162.878036,63.094398 
	C166.840927,61.532314 170.954987,60.353752 175.000000,59.000000 
z"/>
<path fill="#060505" opacity="1.000000" stroke="none" 
	d="
M30.468658,76.000000 
	C30.999569,67.319656 31.999138,58.639313 33.361095,49.527267 
	C37.663891,50.728737 41.604298,52.361908 45.662552,54.043919 
	C47.213264,49.171612 46.297863,46.160675 41.120243,45.008438 
	C38.106575,44.337776 35.260132,42.915684 31.684351,41.589016 
	C35.301144,40.229843 38.134037,38.779667 41.140343,38.120964 
	C46.359200,36.977474 47.189449,33.919559 45.710831,29.232180 
	C42.429146,30.461882 39.211571,31.667561 35.993992,32.873241 
	C36.329384,22.560928 36.664772,12.248617 37.000084,1.468152 
	C47.020893,1.000000 57.041790,1.000000 67.531525,1.465689 
	C67.332329,12.900010 66.664284,23.868641 65.565079,34.912365 
	C63.882641,34.906616 62.631367,34.825775 60.939064,34.716442 
	C60.939064,29.433367 60.939064,24.518122 60.939064,19.516407 
	C58.044682,19.516407 55.628025,19.516407 53.037270,19.516407 
	C53.037270,32.473877 53.037270,45.163418 53.037270,58.547356 
	C56.121975,57.965225 58.761848,57.467037 61.795357,57.004166 
	C66.459320,63.359657 70.729660,69.679825 75.000000,76.000000 
	C60.312439,76.000000 45.624878,76.000000 30.468658,76.000000 
z"/>
<path fill="#0F0C0B" opacity="1.000000" stroke="none" 
	d="
M141.006165,31.862736 
	C142.422211,23.470339 143.841858,15.078548 145.251114,6.685014 
	C145.521561,5.074265 145.751129,3.456655 145.999771,1.421105 
	C155.617798,1.000000 165.235580,1.000000 175.000000,1.000000 
	C175.000000,20.020674 175.000000,39.041679 175.000000,58.531342 
	C170.954987,60.353752 166.840927,61.532314 162.878036,63.094398 
	C151.387634,67.623657 145.108032,64.264359 142.247620,51.106575 
	C146.100296,48.924232 149.848343,47.617756 153.276688,45.730507 
	C154.635147,44.982712 156.064636,42.929707 156.036774,41.498707 
	C156.008575,40.050049 154.527710,38.061180 153.141693,37.315834 
	C149.245697,35.220730 145.070969,33.643925 141.006165,31.862736 
z"/>
<path fill="#151513" opacity="1.000000" stroke="none" 
	d="
M126.531425,1.000000 
	C126.332916,6.732147 125.665825,12.464293 124.703613,18.835312 
	C123.595398,21.038460 122.591827,22.534164 122.000008,24.178097 
	C118.048706,35.153831 114.185257,46.161194 110.109695,56.845253 
	C105.589119,49.885162 101.252129,43.238110 96.939117,36.627815 
	C101.504112,30.858540 105.837250,25.382278 110.532173,19.448795 
	C106.961685,19.261795 104.480865,19.131865 102.057220,18.599522 
	C103.076263,12.464740 104.038132,6.732370 105.000000,1.000000 
	C112.020950,1.000000 119.041893,1.000000 126.531425,1.000000 
z"/>
<path fill="#0C0A09" opacity="1.000000" stroke="none" 
	d="
M65.996239,34.837273 
	C66.664284,23.868641 67.332329,12.900010 68.000183,1.465689 
	C74.354401,1.000000 80.708794,1.000000 87.531601,1.447564 
	C87.333397,7.599028 86.666801,13.302929 85.552658,19.087103 
	C82.203339,19.167376 79.301559,19.167376 75.890961,19.167376 
	C75.890961,24.904766 75.890961,29.917999 75.890961,34.837273 
	C72.245171,34.837273 69.120705,34.837273 65.996239,34.837273 
z"/>
<path fill="#0B0B0B" opacity="1.000000" stroke="none" 
	d="
M75.460632,76.000000 
	C70.729660,69.679825 66.459320,63.359657 61.680660,56.615055 
	C61.172333,51.471951 61.172333,46.753273 61.172333,41.991550 
	C64.805733,41.991550 67.902824,41.991550 71.001602,42.404907 
	C71.345894,44.881264 71.343269,47.087051 72.121956,48.969666 
	C73.015114,51.129036 74.601082,53.001839 75.972839,55.343948 
	C76.063087,56.399830 76.066574,57.110889 76.086105,58.187309 
	C77.614212,61.085022 79.082359,63.644897 80.649109,66.142929 
	C82.725746,69.453918 84.879425,72.716576 87.000000,76.000000 
	C83.307091,76.000000 79.614182,76.000000 75.460632,76.000000 
z"/>
<path fill="#110F0F" opacity="1.000000" stroke="none" 
	d="
M86.000198,19.006832 
	C86.666801,13.302929 87.333397,7.599028 88.000000,1.447564 
	C93.354927,1.000000 98.709862,1.000000 104.532394,1.000000 
	C104.038132,6.732370 103.076263,12.464740 101.736130,18.722286 
	C96.954895,24.312817 92.551933,29.378170 87.555847,35.125870 
	C87.555847,31.378157 87.746834,28.301439 87.490341,25.262491 
	C87.312080,23.150394 86.518745,21.090208 86.000198,19.006832 
z"/>
<path fill="#0A0909" opacity="1.000000" stroke="none" 
	d="
M87.468262,76.000000 
	C84.879425,72.716576 82.725746,69.453918 80.649109,66.142929 
	C79.082359,63.644897 77.614212,61.085022 76.533401,58.258747 
	C79.071198,57.984325 81.219627,58.266304 83.270844,57.939014 
	C84.867599,57.684231 86.343307,56.670784 87.872810,55.994511 
	C90.553192,58.467442 93.411072,60.777126 95.871460,63.452377 
	C99.373283,67.260017 102.583199,71.336121 105.958908,75.648773 
	C99.978844,76.000000 93.957695,76.000000 87.468262,76.000000 
z"/>
<path fill="#32CB93" opacity="1.000000" stroke="none" 
	d="
M35.692856,33.077469 
	C39.211571,31.667561 42.429146,30.461882 45.710831,29.232180 
	C47.189449,33.919559 46.359200,36.977474 41.140343,38.120964 
	C38.134037,38.779667 35.301144,40.229843 31.684351,41.589016 
	C35.260132,42.915684 38.106575,44.337776 41.120243,45.008438 
	C46.297863,46.160675 47.213264,49.171612 45.662552,54.043919 
	C41.604298,52.361908 37.663891,50.728737 33.360058,49.080193 
	C30.745481,48.016861 28.303947,47.238056 26.309456,45.827248 
	C24.957575,44.870995 23.442974,43.023033 23.449966,41.580902 
	C23.457050,40.119720 24.934656,38.142113 26.319704,37.320850 
	C29.147743,35.643974 32.345970,34.591412 35.692856,33.077469 
z"/>
<path fill="#F4F4F4" opacity="1.000000" stroke="none" 
	d="
M87.734940,55.559109 
	C86.343307,56.670784 84.867599,57.684231 83.270844,57.939014 
	C81.219627,58.266304 79.071198,57.984325 76.517349,57.893387 
	C76.066574,57.110889 76.063087,56.399830 76.058098,54.884365 
	C76.056587,50.019249 76.056587,45.958542 76.056587,41.658401 
	C73.945915,41.797459 72.472916,41.894505 70.999916,41.991554 
	C67.902824,41.991550 64.805733,41.991550 61.172333,41.991550 
	C61.172333,46.753273 61.172333,51.471951 61.287025,56.579742 
	C58.761848,57.467037 56.121975,57.965225 53.037270,58.547356 
	C53.037270,45.163418 53.037270,32.473877 53.037270,19.516407 
	C55.628025,19.516407 58.044682,19.516407 60.939064,19.516407 
	C60.939064,24.518122 60.939064,29.433367 60.939064,34.716442 
	C62.631367,34.825775 63.882641,34.906616 65.565079,34.912365 
	C69.120705,34.837273 72.245171,34.837273 75.890961,34.837273 
	C75.890961,29.917999 75.890961,24.904766 75.890961,19.167376 
	C79.301559,19.167376 82.203339,19.167376 85.552658,19.087105 
	C86.518745,21.090208 87.312080,23.150394 87.490341,25.262491 
	C87.746834,28.301439 87.555847,31.378157 87.555847,35.125870 
	C92.551933,29.378170 96.954895,24.312817 101.678955,19.124701 
	C104.480865,19.131865 106.961685,19.261795 110.532173,19.448795 
	C105.837250,25.382278 101.504112,30.858540 96.939117,36.627815 
	C101.252129,43.238110 105.589119,49.885162 110.039795,57.033085 
	C110.153488,57.533955 110.105461,57.934914 110.105461,57.934914 
	C97.857750,61.106262 96.881546,49.503258 91.367065,43.581898 
	C86.002167,46.101788 87.861504,50.973103 87.734940,55.559109 
z"/>
<path fill="#33CB94" opacity="1.000000" stroke="none" 
	d="
M140.646088,31.842962 
	C145.070969,33.643925 149.245697,35.220730 153.141693,37.315834 
	C154.527710,38.061180 156.008575,40.050049 156.036774,41.498707 
	C156.064636,42.929707 154.635147,44.982712 153.276688,45.730507 
	C149.848343,47.617756 146.100296,48.924232 142.237335,50.720486 
	C139.216980,51.952023 136.439636,52.926502 133.605530,53.920895 
	C131.915985,49.078320 133.170227,46.239372 138.193665,45.068237 
	C141.230789,44.360184 144.111130,42.979717 147.924728,41.586063 
	C144.258377,40.208267 141.413956,38.759228 138.396637,38.091110 
	C133.388489,36.982178 131.819458,34.261257 133.568573,29.071846 
	C135.781555,29.978243 138.033798,30.900717 140.646088,31.842962 
z"/>
<path fill="#32C590" opacity="1.000000" stroke="none" 
	d="
M110.118210,58.365112 
	C110.105461,57.934914 110.153488,57.533955 110.223389,57.346123 
	C114.185257,46.161194 118.048706,35.153831 122.000008,24.178097 
	C122.591827,22.534164 123.595398,21.038460 124.703133,19.294437 
	C126.271881,19.328995 127.545990,19.543299 129.436127,19.861216 
	C125.706635,30.980814 122.083824,41.792515 118.452309,52.601288 
	C117.712029,54.804653 117.188896,57.136292 116.074890,59.135300 
	C115.523056,60.125523 113.869858,60.952236 112.688736,60.988052 
	C111.859070,61.013210 110.985130,59.578255 110.118210,58.365112 
z"/>
<path fill="#0A0909" opacity="1.000000" stroke="none" 
	d="
M71.001602,42.404911 
	C72.472916,41.894505 73.945915,41.797459 76.056587,41.658401 
	C76.056587,45.958542 76.056587,50.019249 75.971329,54.539543 
	C74.601082,53.001839 73.015114,51.129036 72.121956,48.969666 
	C71.343269,47.087051 71.345894,44.881264 71.001602,42.404911 
z"/>
</svg>