<svg width="820" height="759" viewBox="0 0 820 759" fill="none" xmlns="http://www.w3.org/2000/svg">
<g clip-path="url(#clip0_143_2397)">
<path opacity="0.07" d="M163.129 80.1453C114.535 156.297 213.565 233.186 196.465 350.48C179.365 467.774 20.2627 456.329 94.7287 549.324C169.195 642.318 323.428 769.126 494.329 722.458C665.23 675.791 750.649 486.604 778.331 362.662C806.013 238.719 701.936 305.886 605.063 226.689C508.19 147.491 477.468 74.5959 390.837 45.8742C280.354 9.23791 211.722 3.9936 163.129 80.1453Z" fill="#1688F3"/>
<path opacity="0.1" d="M249.125 182.546C215.295 235.561 284.238 289.09 272.333 370.748C260.427 452.407 149.662 444.439 201.502 509.179C253.342 573.92 360.719 662.2 479.692 629.713C598.666 597.225 658.136 465.516 677.409 379.229C696.682 292.942 624.224 339.703 556.783 284.567C489.343 229.431 467.954 178.686 407.645 158.687C330.735 133.182 282.954 129.53 249.125 182.546Z" fill="#1688F3"/>
<path opacity="0.3" d="M385.179 409.089C376.037 423.415 394.668 437.88 391.45 459.947C388.233 482.014 358.302 479.861 372.311 497.356C386.32 514.851 415.335 538.706 447.487 529.928C479.638 521.149 495.708 485.558 500.916 462.239C506.125 438.921 486.544 451.558 468.319 436.659C450.094 421.759 444.315 408.046 428.017 402.639C407.229 395.749 394.321 394.763 385.179 409.089Z" fill="#1688F3"/>
<path d="M283.006 389.416C299.245 318.033 373.467 275.191 443.16 297.604C444.56 298.054 445.972 298.525 447.395 299.014C538.498 330.33 508.606 422.858 554.157 451.327C599.709 479.797 632.447 521.078 612.521 575.172C592.596 629.265 471.593 680.505 376.22 622.146C301.25 576.269 262.341 480.255 283.006 389.416Z" stroke="#BFD9FF" stroke-width="1.31749" stroke-miterlimit="10"/>
<path d="M304.303 304.785C309.456 272.569 287.517 242.274 255.301 237.121C223.085 231.968 192.79 253.907 187.637 286.123C182.484 318.34 204.423 348.634 236.639 353.787C268.856 358.94 299.15 337.001 304.303 304.785Z" stroke="#BFD9FF" stroke-width="1.31749" stroke-miterlimit="10"/>
<path d="M530.071 562.359H323.455C322.387 562.359 321.336 562.092 320.397 561.583C319.459 561.073 318.662 560.337 318.081 559.441C317.5 558.545 317.152 557.518 317.069 556.453C316.985 555.389 317.17 554.32 317.605 553.345L464.204 224.517C464.707 223.385 465.528 222.424 466.566 221.749C467.604 221.075 468.816 220.715 470.054 220.715H676.673C677.741 220.715 678.792 220.982 679.731 221.492C680.669 222.002 681.466 222.738 682.047 223.634C682.628 224.529 682.977 225.556 683.06 226.621C683.143 227.686 682.959 228.754 682.524 229.73L535.925 558.558C535.421 559.689 534.6 560.651 533.561 561.326C532.522 562 531.309 562.359 530.071 562.359Z" fill="url(#paint0_linear_143_2397)"/>
<path d="M592.692 330.413L659.371 180.853C659.744 180.018 659.903 179.103 659.832 178.191C659.761 177.278 659.463 176.399 658.965 175.631C658.467 174.864 657.785 174.233 656.981 173.796C656.177 173.36 655.276 173.131 654.362 173.131H467.273C463.874 173.131 460.548 174.115 457.697 175.966C454.847 177.816 452.593 180.453 451.21 183.557L383.519 335.384C383.146 336.219 382.988 337.134 383.059 338.046C383.13 338.959 383.428 339.838 383.926 340.606C384.423 341.373 385.105 342.004 385.909 342.441C386.713 342.877 387.614 343.106 388.529 343.106H573.13C577.268 343.106 581.318 341.908 584.79 339.655C588.262 337.403 591.007 334.193 592.692 330.413Z" fill="white"/>
<path d="M568.493 432.905L635.172 283.345C635.545 282.51 635.703 281.594 635.632 280.682C635.561 279.77 635.263 278.89 634.765 278.123C634.267 277.355 633.585 276.725 632.781 276.288C631.977 275.851 631.077 275.623 630.162 275.623H443.072C439.674 275.623 436.348 276.607 433.497 278.458C430.647 280.308 428.394 282.945 427.01 286.049L359.319 437.875C358.946 438.711 358.788 439.626 358.859 440.538C358.93 441.45 359.228 442.33 359.726 443.098C360.224 443.865 360.906 444.496 361.71 444.932C362.514 445.369 363.414 445.598 364.329 445.597H548.93C553.069 445.598 557.118 444.399 560.59 442.147C564.062 439.894 566.807 436.684 568.493 432.905Z" stroke="white" stroke-width="1.31749" stroke-miterlimit="10"/>
<path opacity="0.39" d="M483.695 380.063H492.236L469.283 424.903H330.491L336.094 413.959" stroke="#A1C2FF" stroke-width="0.658152" stroke-miterlimit="10"/>
<path d="M499.88 255.871C517.463 240.63 522.432 217.563 510.979 204.35C499.526 191.138 475.988 192.783 458.405 208.025C440.821 223.267 435.852 246.333 447.305 259.546C458.758 272.758 482.297 271.113 499.88 255.871Z" fill="#E6F4FF"/>
<path d="M497.44 253.057C512.954 239.609 517.338 219.256 507.233 207.598C497.127 195.94 476.358 197.391 460.843 210.839C445.329 224.288 440.945 244.641 451.05 256.299C461.156 267.957 481.925 266.506 497.44 253.057Z" fill="#94C3FF"/>
<path d="M479.733 238.398C479.733 238.398 462.8 241.197 455.57 244.047C450.66 247.004 449.881 249.354 448.707 252.883L448.689 252.917C452.626 259.799 460.119 264.173 469.901 264.173C482.537 264.173 495.539 256.881 503.855 246.29C499.329 239.641 479.733 238.398 479.733 238.398Z" fill="#1688F3"/>
<path d="M473.777 231.192L470.857 243.528C470.746 243.852 470.708 244.197 470.744 244.537C470.781 244.878 470.892 245.206 471.07 245.499C471.248 245.793 471.488 246.043 471.773 246.233C472.058 246.423 472.381 246.548 472.72 246.6C476.143 247.138 479.643 246.375 482.532 244.462C483.093 244.114 483.568 243.644 483.922 243.087C484.276 242.53 484.499 241.9 484.575 241.244C484.985 235.487 486.154 223.685 486.154 223.685L473.777 231.192Z" fill="#FF8D68"/>
<path d="M471.145 218.12C471.145 218.12 463.192 234.222 464.74 238.553C466.529 241.505 482.52 234.87 485.139 230.558C487.759 226.245 493.774 218.421 489.088 213.532C484.403 208.642 477.162 210.3 471.145 218.12Z" fill="#FF8D68"/>
<path d="M471.145 218.12C471.145 218.12 469.744 212.431 474.558 209.079C479.372 205.728 485.55 206.398 487.773 209.749C488.656 210.983 489.462 212.27 490.186 213.603C490.924 213.799 491.6 214.179 492.152 214.706C492.703 215.233 493.113 215.892 493.342 216.62C494.13 219.133 489.12 225.501 487.083 227.344C485.045 229.186 485.467 229.235 485.467 229.235L484.785 228.349C484.989 225.741 485.449 223.159 486.156 220.641C486.422 219.133 484.7 216.958 481.661 216.452C478.622 215.946 477.504 218.781 471.145 218.12Z" fill="#7E3636"/>
<path d="M486.649 225.447C486.93 224.899 487.383 224.458 487.938 224.192C488.494 223.926 489.121 223.849 489.724 223.973C491.679 224.627 487.774 230.781 485.704 230.353C483.723 229.846 486.649 225.447 486.649 225.447Z" fill="#FF8D68"/>
<path d="M484.716 238.906C484.716 238.906 480.466 243.598 476.281 244.939C475.547 245.162 474.459 246.615 474.459 246.615L473.696 244.604C473.696 244.604 470.825 242.929 471.659 240.024L471.083 240.471L469.548 244.272C469.016 245.867 468.657 247.515 468.479 249.187L472.327 247.064C473.691 247.503 475.153 247.542 476.539 247.176C476.539 247.176 477.335 249.857 478.053 250.081C478.77 250.304 484.587 244.83 485.465 242.931C486.062 241.758 486.323 240.442 486.219 239.13L484.716 238.906Z" fill="white"/>
<path opacity="0.39" d="M607.43 245.991H526.383C523.897 245.991 522.616 243.972 523.521 241.488L534.993 209.97C535.485 208.716 536.324 207.627 537.411 206.83C538.498 206.033 539.789 205.561 541.133 205.469H622.18C624.666 205.469 625.949 207.488 625.044 209.97L613.573 241.488C613.08 242.743 612.241 243.832 611.153 244.629C610.066 245.426 608.775 245.899 607.43 245.991Z" fill="#A1C2FF"/>
<path d="M612.112 219.728H542.323L543.552 216.35H613.346L612.112 219.728Z" fill="#94C3FF"/>
<path d="M581.478 227.606H539.455L540.684 224.23H582.709L581.478 227.606Z" fill="#94C3FF"/>
<path d="M547.741 234.735H536.86L538.09 231.358H548.971L547.741 234.735Z" fill="#94C3FF"/>
<path d="M530.136 260.489C529.526 261.903 528.541 263.123 527.286 264.017C526.032 264.912 524.557 265.445 523.021 265.56C520.219 265.56 518.863 263.291 519.998 260.489C520.609 259.075 521.596 257.855 522.851 256.961C524.106 256.068 525.582 255.534 527.118 255.419C529.911 255.419 531.269 257.689 530.136 260.489Z" fill="#94C3FF"/>
<path d="M547.752 260.489C547.142 261.904 546.156 263.124 544.901 264.018C543.646 264.912 542.17 265.446 540.633 265.56C537.831 265.56 536.475 263.291 537.61 260.489C538.221 259.075 539.208 257.855 540.463 256.961C541.719 256.068 543.194 255.534 544.731 255.419C547.531 255.419 548.885 257.689 547.752 260.489Z" fill="#94C3FF"/>
<path d="M565.367 260.489C564.757 261.904 563.771 263.124 562.516 264.018C561.261 264.912 559.785 265.446 558.249 265.56C555.446 265.56 554.091 263.291 555.225 260.489C555.837 259.075 556.824 257.855 558.079 256.961C559.334 256.068 560.81 255.534 562.346 255.419C565.146 255.419 566.501 257.689 565.367 260.489Z" fill="#94C3FF"/>
<path d="M582.984 260.489C582.374 261.904 581.388 263.124 580.133 264.018C578.878 264.912 577.402 265.446 575.866 265.56C573.063 265.56 571.708 263.291 572.842 260.489C573.454 259.075 574.441 257.855 575.696 256.961C576.951 256.068 578.427 255.534 579.963 255.419C582.763 255.419 584.117 257.689 582.984 260.489Z" fill="#FF8D02"/>
<path opacity="0.39" d="M600.6 260.489C599.989 261.904 599.003 263.125 597.747 264.019C596.492 264.913 595.016 265.446 593.479 265.56C590.679 265.56 589.321 263.291 590.456 260.489C591.068 259.075 592.055 257.855 593.31 256.961C594.565 256.068 596.041 255.534 597.577 255.419C600.379 255.419 601.733 257.689 600.6 260.489Z" fill="#A1C2FF"/>
<path opacity="0.39" d="M558.744 275.905L536.382 299.146L513.209 308.337L539.471 327.615L565.865 305.094L558.744 275.905Z" fill="#A1C2FF"/>
<path opacity="0.7" d="M553.447 289.404L536.384 299.146L521.952 308.267L541.525 322.324L560.031 305.42L553.447 289.404Z" fill="#A1C2FF"/>
<path d="M558.744 275.905L536.382 299.146L513.209 308.337L539.399 327.794L565.865 305.094L558.744 275.905Z" stroke="#1688F3" stroke-width="0.333828" stroke-miterlimit="10"/>
<path d="M548.24 307.253C548.044 307.705 547.729 308.095 547.328 308.381C546.927 308.667 546.455 308.838 545.964 308.875C545.068 308.875 544.634 308.149 544.997 307.253C545.192 306.801 545.507 306.411 545.909 306.125C546.31 305.839 546.782 305.668 547.273 305.631C548.17 305.629 548.602 306.355 548.24 307.253Z" fill="#1688F3"/>
<path d="M526.254 291.216L546.045 306.891L510.725 308.693" stroke="#1688F3" stroke-width="0.333828" stroke-miterlimit="10"/>
<path d="M537.939 333.193L546.764 306.889L570.049 304.548" stroke="#1688F3" stroke-width="0.333828" stroke-miterlimit="10"/>
<path d="M560.055 272.66L546.764 306.891" stroke="#1688F3" stroke-width="0.333828" stroke-miterlimit="10"/>
<path d="M528.054 290.917C527.726 291.676 527.197 292.331 526.523 292.81C525.849 293.29 525.057 293.576 524.233 293.638C522.73 293.638 522.004 292.419 522.611 290.917C522.939 290.157 523.469 289.502 524.142 289.022C524.816 288.543 525.608 288.256 526.433 288.195C527.935 288.195 528.66 289.414 528.054 290.917Z" fill="#94C3FF"/>
<path d="M512.039 308.709C511.711 309.469 511.182 310.124 510.508 310.604C509.834 311.084 509.041 311.37 508.216 311.431C506.712 311.431 505.986 310.213 506.592 308.709C506.921 307.95 507.45 307.296 508.124 306.817C508.798 306.337 509.59 306.051 510.414 305.99C511.922 305.99 512.647 307.207 512.039 308.709Z" fill="#FF8D02"/>
<path d="M540.511 333.621C540.182 334.38 539.653 335.035 538.979 335.515C538.306 335.994 537.514 336.281 536.689 336.343C535.186 336.343 534.46 335.124 535.067 333.621C535.395 332.862 535.925 332.207 536.599 331.727C537.272 331.247 538.064 330.961 538.889 330.899C540.392 330.899 541.117 332.118 540.511 333.621Z" fill="#94C3FF"/>
<path d="M573.219 304.582C572.89 305.341 572.361 305.995 571.688 306.475C571.014 306.955 570.223 307.241 569.398 307.304C567.895 307.304 567.17 306.085 567.777 304.582C568.104 303.823 568.634 303.167 569.307 302.688C569.981 302.208 570.774 301.922 571.598 301.86C573.099 301.86 573.825 303.077 573.219 304.582Z" fill="#94C3FF"/>
<path d="M563.077 271.752C562.749 272.512 562.219 273.166 561.545 273.646C560.872 274.126 560.08 274.412 559.255 274.474C557.752 274.474 557.026 273.255 557.633 271.752C557.961 270.993 558.49 270.338 559.164 269.858C559.838 269.378 560.63 269.092 561.455 269.031C562.957 269.031 563.683 270.248 563.077 271.752Z" fill="#FF8D02"/>
<path d="M501.286 294.461H433.441L438.627 281.63H506.471L501.286 294.461Z" fill="#1688F3"/>
<path opacity="0.39" d="M460.431 323.337H421.773L423.995 317.837H462.654L460.431 323.337Z" fill="#A1C2FF"/>
<path opacity="0.39" d="M454.638 312.339H426.217L431.402 299.508H459.824L454.638 312.339Z" fill="#A1C2FF"/>
<path d="M605.316 449.276L638.516 374.812C638.701 374.396 638.779 373.94 638.743 373.487C638.707 373.033 638.558 372.596 638.311 372.214C638.063 371.832 637.724 371.519 637.324 371.301C636.924 371.084 636.476 370.97 636.021 370.97H542.87C541.179 370.971 539.524 371.461 538.106 372.383C536.687 373.304 535.566 374.616 534.877 376.16L501.175 451.755C500.99 452.171 500.912 452.626 500.948 453.08C500.984 453.533 501.132 453.971 501.38 454.353C501.628 454.734 501.967 455.048 502.367 455.265C502.767 455.483 503.215 455.597 503.67 455.597H595.582C597.641 455.596 599.657 454.998 601.384 453.877C603.112 452.755 604.477 451.157 605.316 449.276Z" fill="white"/>
<path opacity="0.39" d="M586.427 430.845C602.11 418.019 607.864 399.11 599.277 388.611C590.691 378.112 571.016 379.999 555.333 392.825C539.65 405.652 533.896 424.56 542.483 435.059C551.069 445.558 570.743 443.671 586.427 430.845Z" fill="#A1C2FF"/>
<mask id="mask0_143_2397" style="mask-type:luminance" maskUnits="userSpaceOnUse" x="538" y="381" width="66" height="61">
<path d="M586.427 430.845C602.11 418.019 607.864 399.11 599.277 388.611C590.691 378.112 571.016 379.999 555.333 392.825C539.65 405.652 533.896 424.56 542.483 435.059C551.069 445.558 570.743 443.671 586.427 430.845Z" fill="white"/>
</mask>
<g mask="url(#mask0_143_2397)">
<path d="M573.372 414.952C573.372 414.952 588.476 422.457 590.075 429.336C591.674 436.214 584.967 454.352 584.967 454.352H524.935C524.935 454.352 534.775 433.086 542.426 428.086C550.077 423.086 564.843 419.263 564.843 419.263L573.372 414.952Z" fill="#4385FF"/>
<path d="M567.179 410.068L562.467 420.247C561.873 421.521 562.23 422.684 563.326 423.015C566.05 423.771 568.962 423.436 571.443 422.082C572.494 421.563 573.297 420.651 573.677 419.543C575.129 414.706 578.362 404.822 578.362 404.822L567.179 410.068Z" fill="#94C3FF"/>
<path d="M567.682 398.767C567.682 398.767 558.284 411.683 558.653 415.484C559.477 418.141 573.323 413.964 576.224 410.545C579.126 407.126 585.379 401.048 582.663 396.489C579.948 391.929 573.935 392.689 567.682 398.767Z" fill="#94C3FF"/>
<path d="M568.079 396.872C567.959 397.035 567.847 397.205 567.744 397.38C567.199 398.298 566.39 400.152 568.647 400.273L571.66 400.434C571.66 400.434 576.496 397.682 578.396 400.596C579.807 403.51 575.203 405.292 575.585 406.75C575.968 408.207 575.774 407.882 575.123 408.691C574.358 410.043 573.188 411.122 571.778 411.775C569.603 412.746 567.889 412.584 565.81 413.719C563.731 414.853 559.722 413.555 559.306 412.584C558.338 411.775 557.781 413.555 557.161 414.689C556.54 415.824 554.628 416.147 556.467 417.603C558.306 419.06 559.666 419.708 562.882 417.765C564.842 416.417 567.083 415.531 569.435 415.174C572.222 414.633 574.691 413.034 576.325 410.713C577.56 408.693 577.959 406.106 579.001 405.129C580.043 404.153 580.619 405.129 580.163 406.261C579.706 407.394 584.116 405.291 585.166 401.89C586.217 398.488 584.369 398.652 584.184 396.709C583.999 394.765 586.204 392.499 583.851 390.719C581.499 388.939 579.282 391.205 578.447 390.07C577.612 388.936 573.949 388.777 571.026 391.205C569.275 392.687 568.167 394.791 567.937 397.074" fill="#1688F3"/>
<path d="M578.439 405.392C578.439 405.392 579.708 403.752 581.139 404.421C582.545 405.149 578.275 410.005 576.734 409.462C575.28 408.852 578.439 405.392 578.439 405.392Z" fill="#94C3FF"/>
<path d="M558.297 413.063C558.297 413.063 559.677 408.044 563.178 407.397C566.679 406.749 568.255 408.853 568.022 410.634C567.972 411.169 568.068 411.708 568.299 412.193C568.531 412.678 568.89 413.091 569.338 413.388C569.338 413.388 560.513 417.598 558.297 413.063Z" fill="#1688F3"/>
</g>
<path d="M563.557 549.801L596.754 475.337C596.939 474.921 597.017 474.466 596.981 474.012C596.945 473.559 596.797 473.121 596.549 472.739C596.301 472.358 595.962 472.044 595.562 471.827C595.162 471.609 594.714 471.495 594.259 471.495H501.111C499.418 471.495 497.763 471.985 496.343 472.906C494.924 473.828 493.801 475.14 493.112 476.685L459.41 552.28C459.225 552.696 459.147 553.152 459.183 553.605C459.218 554.059 459.367 554.496 459.615 554.878C459.863 555.26 460.202 555.573 460.602 555.791C461.002 556.008 461.449 556.122 461.904 556.122H553.816C555.877 556.122 557.894 555.525 559.622 554.403C561.351 553.282 562.717 551.683 563.557 549.801Z" fill="white"/>
<path d="M451.334 539.904L494.693 456.313C494.934 455.846 495.036 455.335 494.989 454.826C494.942 454.316 494.748 453.825 494.424 453.397C494.101 452.968 493.658 452.616 493.135 452.372C492.613 452.128 492.028 452 491.434 452H369.773C367.563 452 365.4 452.55 363.546 453.584C361.692 454.618 360.226 456.092 359.326 457.827L315.308 542.687C315.066 543.154 314.964 543.665 315.011 544.174C315.058 544.684 315.252 545.175 315.576 545.603C315.899 546.032 316.342 546.384 316.865 546.628C317.387 546.872 317.972 547 318.566 547H438.612C441.303 547 443.937 546.33 446.195 545.07C448.452 543.811 450.237 542.017 451.334 539.904Z" fill="white"/>
<path opacity="0.39" d="M544.785 531.252C560.812 518.138 566.689 498.811 557.911 488.082C549.133 477.353 529.024 479.285 512.997 492.399C496.969 505.512 491.092 524.84 499.87 535.569C508.649 546.298 528.757 544.365 544.785 531.252Z" fill="#A1C2FF"/>
<mask id="mask1_143_2397" style="mask-type:luminance" maskUnits="userSpaceOnUse" x="495" y="481" width="67" height="62">
<path d="M544.785 531.252C560.812 518.138 566.689 498.811 557.911 488.082C549.133 477.353 529.024 479.285 512.997 492.399C496.969 505.512 491.092 524.84 499.87 535.569C508.649 546.298 528.757 544.365 544.785 531.252Z" fill="white"/>
</mask>
<g mask="url(#mask1_143_2397)">
<path d="M537.408 503.108C537.408 503.108 541.98 500.931 542.593 503.572C542.747 504.384 542.699 505.221 542.453 506.009C542.208 506.798 541.773 507.515 541.187 508.096C541.187 508.096 545.319 506.959 546.414 510.486C547.509 514.014 544.197 515.695 545.573 516.95C546.949 518.206 549.796 520.894 545.81 525.364C541.825 529.833 535.998 534.958 529.24 531.66C522.483 528.362 524.637 512.296 524.637 512.296L526.287 507.604L537.408 503.108Z" fill="#1688F3"/>
<path d="M532.998 489.629C532.998 489.629 522.817 490.485 519.602 497.618C516.387 504.751 522.778 505.251 522.778 505.251L532.998 489.629Z" fill="#1688F3"/>
<path d="M466.827 538.115L467.482 539.296C472.074 544.741 477.029 549.87 482.313 554.647H496.853C504.438 547.734 514.792 535.686 514.834 535.196C514.902 534.495 523.955 524.651 521.962 520.637C519.97 516.623 517.378 517.267 517.378 517.267C517.378 517.267 514.427 517.67 511.115 521.101C507.803 524.532 491.463 549.865 491.463 549.865C489.918 547.284 487.895 545.02 485.504 543.195C481.64 540.308 470.34 534.222 470.34 534.222C470.34 534.222 471.034 529.333 470.969 528.4C470.903 527.468 468.091 523.198 467.238 524.115C466.385 525.032 468.38 529.044 468.38 529.044C468.38 529.044 466.174 536.933 466.827 538.115Z" fill="#94C3FF"/>
<path d="M503.209 547.55C503.209 547.55 503.64 550.665 504.474 554.646H533.342C533.982 548.13 535.33 535.031 536.137 531.922C537.221 527.743 536.264 518.846 536.612 516.402C536.96 513.958 529.978 514.857 529.978 514.857L520.885 515.01L519.418 515.638C517.371 516.526 515.625 517.986 514.389 519.842C513.263 521.566 511.604 524.076 509.373 527.369C505.783 530.092 497.865 534.825 498.444 540.794C499.022 546.762 503.209 547.55 503.209 547.55Z" fill="#4385FF"/>
<path d="M523.936 509.47C523.936 509.47 515.866 519.449 513.643 532.017C516.276 531.208 524.283 523.862 529.004 519.384C530.995 517.493 531.18 516.463 530.812 514.526C530.631 513.575 531.469 510.932 532.588 507.908C533.333 503.72 523.936 509.47 523.936 509.47Z" fill="#94C3FF"/>
<path d="M549.262 550.311C549.262 550.311 550.517 552.045 552.588 554.646H565.503C563.014 551.347 561.035 548.684 560.419 547.756C558.308 544.557 543.541 512.354 534.545 516.363C532.881 517.103 526.871 522.149 529.317 527.808C531.764 533.468 549.262 550.311 549.262 550.311Z" fill="#94C3FF"/>
<path d="M523.574 496.295C521.19 499.263 519.064 502.428 517.218 505.756C515.554 508.977 516.694 511.926 519.784 512.255C524.223 512.73 530.995 511.629 533.222 509.084C536.526 505.305 543.614 498.618 540.737 493.421C537.944 488.377 531.581 488.901 524.723 495.061C524.307 495.44 523.922 495.853 523.574 496.295Z" fill="#94C3FF"/>
<path d="M526.57 492.996C526.57 492.996 522.112 500.282 534.767 504.934L536.36 505.647C536.36 505.647 541.888 501.257 541.968 496.61C542.049 491.962 539.653 490.269 537.235 489.258C534.818 488.248 528.259 491.256 526.57 492.996Z" fill="#1688F3"/>
<path d="M534.422 505.985C534.422 505.985 537.63 503.775 537.588 505.815C537.547 507.855 533.054 510.037 532.585 509.185C532.115 508.333 534.422 505.985 534.422 505.985Z" fill="#94C3FF"/>
</g>
<path d="M462.335 488.093H359.735C356.588 488.093 355.066 485.539 356.34 482.39L363.632 464.341C364.318 462.751 365.427 461.379 366.837 460.374C368.248 459.368 369.907 458.768 371.634 458.639H474.233C477.38 458.639 478.902 461.19 477.629 464.341L470.337 482.39C469.65 483.98 468.541 485.352 467.131 486.357C465.721 487.362 464.062 487.962 462.335 488.093Z" fill="#4385FF"/>
<path d="M461.534 474.792H373.183L374.911 470.516H463.26L461.534 474.792Z" fill="white"/>
<path d="M379.358 190.827H375.887C375.273 190.827 374.976 190.33 375.224 189.716L376.626 186.245C376.76 185.935 376.977 185.667 377.252 185.471C377.527 185.276 377.851 185.159 378.188 185.134H381.657C382.271 185.134 382.568 185.63 382.32 186.245L380.918 189.716C380.784 190.026 380.568 190.293 380.293 190.489C380.018 190.685 379.695 190.802 379.358 190.827Z" fill="#F9FBFC"/>
<path d="M414.946 190.827H411.475C410.861 190.827 410.564 190.33 410.812 189.716L412.214 186.245C412.348 185.935 412.564 185.668 412.839 185.472C413.114 185.276 413.437 185.159 413.774 185.134H417.245C417.859 185.134 418.156 185.63 417.908 186.245L416.506 189.716C416.372 190.026 416.156 190.293 415.881 190.489C415.606 190.684 415.283 190.801 414.946 190.827Z" fill="#BFD9FF"/>
<path d="M372.745 207.198H369.273C368.659 207.198 368.362 206.699 368.611 206.085L370.012 202.616C370.146 202.306 370.363 202.038 370.638 201.842C370.914 201.645 371.237 201.528 371.575 201.503H375.044C375.658 201.503 375.955 202.002 375.706 202.616L374.306 206.085C374.172 206.395 373.956 206.663 373.68 206.859C373.405 207.055 373.082 207.173 372.745 207.198Z" fill="#BFD9FF"/>
<path d="M390.538 207.198H387.069C386.454 207.198 386.157 206.699 386.406 206.085L387.806 202.616C387.94 202.306 388.157 202.038 388.432 201.842C388.708 201.645 389.031 201.528 389.369 201.503H392.84C393.454 201.503 393.751 202.002 393.503 202.616L392.101 206.085C391.967 206.396 391.75 206.664 391.475 206.86C391.199 207.056 390.875 207.173 390.538 207.198Z" fill="#F9FBFC"/>
<path d="M408.333 207.198H404.861C404.247 207.198 403.95 206.699 404.198 206.085L405.6 202.616C405.734 202.306 405.951 202.038 406.226 201.842C406.501 201.645 406.825 201.528 407.162 201.503H410.631C411.246 201.503 411.543 202.002 411.294 202.616L409.892 206.085C409.758 206.395 409.542 206.663 409.268 206.859C408.993 207.055 408.669 207.172 408.333 207.198Z" fill="#F9FBFC"/>
<path d="M422.566 207.198H419.097C418.483 207.198 418.186 206.699 418.434 206.085L419.836 202.616C419.969 202.306 420.185 202.038 420.46 201.842C420.735 201.645 421.059 201.528 421.396 201.503H424.867C425.481 201.503 425.778 202.002 425.53 202.616L424.128 206.085C423.994 206.395 423.778 206.663 423.502 206.859C423.227 207.056 422.903 207.173 422.566 207.198Z" fill="#F9FBFC"/>
<path d="M366.13 223.567H362.659C362.046 223.567 361.748 223.068 361.996 222.457L363.398 218.985C363.532 218.675 363.749 218.408 364.024 218.212C364.299 218.016 364.623 217.9 364.96 217.875H368.429C369.043 217.875 369.34 218.371 369.092 218.985L367.691 222.457C367.557 222.766 367.34 223.033 367.065 223.229C366.79 223.425 366.467 223.542 366.13 223.567Z" fill="#F9FBFC"/>
<path d="M351.894 223.567H348.425C347.811 223.567 347.514 223.068 347.762 222.457L349.163 218.985C349.297 218.675 349.514 218.408 349.789 218.212C350.065 218.016 350.388 217.9 350.725 217.875H354.197C354.811 217.875 355.108 218.371 354.859 218.985L353.458 222.457C353.323 222.767 353.106 223.034 352.831 223.23C352.555 223.425 352.231 223.542 351.894 223.567Z" fill="#F9FBFC"/>
<path d="M383.923 223.567H380.454C379.84 223.567 379.543 223.068 379.791 222.457L381.193 218.985C381.326 218.675 381.542 218.408 381.817 218.212C382.092 218.016 382.416 217.899 382.753 217.875H386.224C386.838 217.875 387.135 218.371 386.887 218.985L385.485 222.457C385.35 222.767 385.134 223.034 384.859 223.23C384.583 223.425 384.26 223.542 383.923 223.567Z" fill="#F9FBFC"/>
<path d="M401.718 223.567H398.246C397.632 223.567 397.335 223.068 397.583 222.457L398.985 218.985C399.12 218.675 399.336 218.408 399.611 218.212C399.887 218.016 400.211 217.9 400.547 217.875H404.016C404.631 217.875 404.928 218.371 404.679 218.985L403.278 222.457C403.143 222.766 402.927 223.033 402.652 223.229C402.377 223.425 402.054 223.542 401.718 223.567Z" fill="#BFD9FF"/>
<path d="M359.515 239.937H356.046C355.432 239.937 355.135 239.44 355.382 238.826L356.784 235.355C356.918 235.045 357.135 234.777 357.41 234.582C357.686 234.386 358.009 234.269 358.346 234.244H361.815C362.43 234.244 362.727 234.741 362.479 235.355L361.078 238.826C360.943 239.136 360.727 239.404 360.451 239.6C360.176 239.795 359.852 239.912 359.515 239.937Z" fill="#F9FBFC"/>
<path d="M380.772 512.19H375.88C375.015 512.19 374.597 511.489 374.946 510.622L376.922 505.732C377.111 505.295 377.416 504.917 377.804 504.641C378.192 504.365 378.648 504.2 379.123 504.164H384.013C384.88 504.164 385.297 504.867 384.947 505.732L382.971 510.622C382.783 511.059 382.478 511.436 382.091 511.713C381.703 511.989 381.247 512.154 380.772 512.19Z" fill="#4385FF"/>
<path d="M430.93 512.19H426.04C425.175 512.19 424.756 511.489 425.106 510.622L427.082 505.732C427.271 505.295 427.576 504.917 427.964 504.641C428.352 504.365 428.808 504.2 429.283 504.164H434.173C435.038 504.164 435.456 504.867 435.107 505.732L433.131 510.622C432.942 511.059 432.637 511.436 432.249 511.712C431.861 511.989 431.405 512.154 430.93 512.19Z" fill="#4385FF"/>
<path d="M371.448 535.264H366.557C365.692 535.264 365.274 534.561 365.623 533.696L367.599 528.806C367.788 528.369 368.093 527.992 368.481 527.715C368.869 527.439 369.325 527.274 369.8 527.238H374.69C375.555 527.238 375.974 527.939 375.624 528.806L373.648 533.696C373.459 534.133 373.154 534.51 372.766 534.786C372.378 535.063 371.923 535.228 371.448 535.264Z" fill="#BFD9FF"/>
<path d="M396.53 535.264H391.64C390.773 535.264 390.356 534.561 390.706 533.696L392.682 528.806C392.87 528.368 393.175 527.991 393.563 527.715C393.951 527.438 394.407 527.273 394.882 527.238H399.772C400.639 527.238 401.056 527.939 400.706 528.806L398.73 533.696C398.541 534.133 398.236 534.51 397.848 534.786C397.46 535.063 397.005 535.228 396.53 535.264Z" fill="#FF8D02"/>
<path d="M421.609 535.264H416.719C415.852 535.264 415.435 534.561 415.785 533.696L417.761 528.806C417.949 528.368 418.254 527.991 418.642 527.715C419.03 527.438 419.486 527.273 419.961 527.238H424.853C425.718 527.238 426.136 527.939 425.787 528.806L423.811 533.696C423.622 534.133 423.317 534.51 422.928 534.787C422.54 535.063 422.084 535.228 421.609 535.264Z" fill="#BFD9FF"/>
<path d="M441.673 535.264H436.783C435.918 535.264 435.499 534.561 435.849 533.696L437.825 528.806C438.013 528.368 438.318 527.991 438.706 527.715C439.094 527.438 439.55 527.273 440.025 527.238H444.917C445.782 527.238 446.2 527.939 445.851 528.806L443.875 533.696C443.686 534.133 443.381 534.51 442.993 534.787C442.604 535.063 442.148 535.228 441.673 535.264Z" fill="#BFD9FF"/>
<path d="M362.125 558.336H357.236C356.371 558.336 355.952 557.635 356.302 556.768L358.277 551.878C358.467 551.442 358.772 551.065 359.16 550.789C359.548 550.513 360.004 550.348 360.479 550.312H365.369C366.233 550.312 366.653 551.013 366.302 551.878L364.327 556.763C364.138 557.201 363.833 557.58 363.445 557.857C363.057 558.134 362.601 558.3 362.125 558.336Z" fill="#BFD9FF"/>
<path d="M342.061 558.336H337.171C336.307 558.336 335.888 557.635 336.238 556.768L338.213 551.878C338.403 551.442 338.708 551.065 339.096 550.789C339.484 550.513 339.94 550.348 340.415 550.312H345.304C346.169 550.312 346.589 551.013 346.238 551.878L344.263 556.768C344.073 557.205 343.768 557.582 343.38 557.859C342.992 558.135 342.536 558.3 342.061 558.336Z" fill="#BFD9FF"/>
<path d="M387.207 558.336H382.317C381.45 558.336 381.033 557.635 381.383 556.768L383.357 551.878C383.547 551.442 383.852 551.065 384.24 550.789C384.628 550.513 385.084 550.348 385.559 550.312H390.449C391.316 550.312 391.733 551.013 391.382 551.878L389.407 556.768C389.218 557.206 388.914 557.583 388.526 557.859C388.138 558.136 387.682 558.301 387.207 558.336Z" fill="#BFD9FF"/>
<path d="M412.286 558.336H407.391C406.523 558.336 406.106 557.635 406.457 556.768L408.433 551.878C408.622 551.442 408.927 551.065 409.315 550.789C409.702 550.513 410.158 550.348 410.633 550.312H415.525C416.39 550.312 416.808 551.013 416.459 551.878L414.483 556.768C414.294 557.205 413.99 557.581 413.603 557.858C413.216 558.134 412.761 558.299 412.286 558.336Z" fill="#FF8D02"/>
<path d="M352.803 581.406H347.913C347.049 581.406 346.63 580.705 346.98 579.837L348.955 574.948C349.144 574.51 349.449 574.133 349.837 573.857C350.225 573.58 350.682 573.415 351.157 573.379H356.046C356.911 573.379 357.329 574.08 356.98 574.948L355.005 579.837C354.815 580.275 354.51 580.652 354.122 580.928C353.734 581.204 353.278 581.37 352.803 581.406Z" fill="#FF8D02"/>
<path opacity="0.39" d="M466.08 415.033H327.288L350.242 370.193H489.033L466.08 415.033Z" fill="#A1C2FF"/>
<path d="M454.435 404.495C462.984 396.946 465.141 385.423 459.254 378.756C453.367 372.09 441.665 372.805 433.117 380.354C424.568 387.903 422.41 399.427 428.297 406.094C434.184 412.76 445.887 412.044 454.435 404.495Z" fill="#73A5FF"/>
<path d="M439.079 401.691C438.807 401.702 438.535 401.648 438.287 401.534C438.04 401.42 437.822 401.248 437.654 401.034L432.941 394.757C432.647 394.226 432.566 393.604 432.712 393.016C432.859 392.428 433.223 391.917 433.731 391.586C433.938 391.376 434.185 391.209 434.457 391.095C434.729 390.981 435.022 390.923 435.317 390.923C435.612 390.923 435.904 390.981 436.176 391.095C436.449 391.209 436.695 391.376 436.903 391.586L440.424 396.277L453.008 386.204C453.216 385.994 453.462 385.827 453.735 385.714C454.007 385.6 454.299 385.541 454.594 385.541C454.889 385.541 455.181 385.6 455.453 385.714C455.725 385.827 455.972 385.994 456.179 386.204C456.473 386.735 456.555 387.357 456.408 387.945C456.262 388.533 455.897 389.044 455.389 389.375L440.824 401.034C440.333 401.443 439.718 401.674 439.079 401.691Z" fill="white"/>
<path d="M334.388 284.868C334.273 285.981 333.838 287.035 333.136 287.905C332.434 288.775 331.494 289.423 330.432 289.77C329.369 290.117 328.228 290.148 327.148 289.86C326.068 289.572 325.094 288.977 324.346 288.147C323.597 287.317 323.105 286.287 322.929 285.183C322.753 284.079 322.901 282.948 323.355 281.926C323.81 280.905 324.55 280.037 325.488 279.427C326.425 278.818 327.519 278.494 328.637 278.494C330.243 278.581 331.75 279.3 332.828 280.494C333.905 281.689 334.466 283.262 334.388 284.868Z" stroke="#505E83" stroke-width="0.616572" stroke-miterlimit="10"/>
<path d="M274.052 319.315C274.052 319.315 264.87 319.928 258.004 329.198C251.139 338.468 261.093 372.452 290.619 386.184C309.843 393.736 311.216 376.571 306.411 364.556C301.605 352.542 287.696 322.136 274.052 319.315Z" fill="white"/>
<path d="M405.278 683.166C405.278 687.529 363.171 691.065 311.23 691.065C259.29 691.065 217.185 687.529 217.185 683.166C217.185 678.804 259.291 675.27 311.23 675.27C363.17 675.27 405.278 678.806 405.278 683.166Z" fill="#BFD9FF"/>
<path d="M276.871 657.609C276.871 657.609 278.867 653.332 286.277 654.474C293.686 655.616 294.543 657.04 295.398 660.745C296.253 664.451 298.817 668.443 300.527 669.299C302.236 670.156 308.509 674.428 313.64 675.283C318.771 676.138 319.342 679.274 318.199 680.699C317.056 682.125 297.677 683.265 293.403 682.695C293.403 682.695 278.867 682.41 275.447 681.269C272.026 680.129 276.586 659.034 276.871 657.609Z" fill="#16142A"/>
<path d="M314.005 657.609C314.005 657.609 316.001 653.332 323.412 654.474C330.823 655.616 331.677 657.04 332.532 660.745C333.388 664.451 335.953 668.443 337.663 669.299C339.374 670.156 345.643 674.428 350.774 675.283C355.905 676.138 356.476 679.274 355.335 680.699C354.193 682.125 334.812 683.265 330.536 682.695C330.536 682.695 316 682.41 312.58 681.269C309.16 680.129 313.716 659.034 314.005 657.609Z" fill="#16142A"/>
<path d="M270.009 551.484C269.467 548.047 270.221 544.531 272.124 541.619C274.026 538.706 276.943 536.604 280.308 535.719C292.773 531.757 295.133 537.518 298.906 548.283C302.679 559.049 295.719 660.718 295.719 660.718C295.719 660.718 280.528 661.065 276.847 658.89C276.847 658.89 266.693 591.427 267.454 574.998C268.214 558.569 270.009 551.484 270.009 551.484Z" fill="#2B3554"/>
<path d="M328.38 289.198C328.38 289.198 331.298 293.147 331.298 295.206C331.298 297.265 327.345 297.277 327.345 297.277L328.38 289.198Z" fill="#FF7759"/>
<path d="M314.33 249.003C314.33 249.003 322.765 251.16 327.54 264.11C332.316 277.059 329.131 304.574 325.947 307.813C322.763 311.051 313.088 309.812 299.673 305.384C285.497 300.706 280.709 285.97 278.171 276.251C273.326 257.631 289.512 238.477 314.33 249.003Z" fill="#FF8D68"/>
<path d="M284.084 320.473L290.924 295.963C290.924 295.963 304.605 291.972 313.156 301.091L316.007 305.082V321.042C305.415 322.729 294.609 322.537 284.084 320.473Z" fill="#FF8D68"/>
<path d="M264.989 452.441C261.937 473.709 261.937 495.303 264.989 516.571C270.117 550.775 280.38 554.195 289.784 554.195C299.189 554.195 301.755 526.833 303.465 514.861C305.176 502.888 312.019 461.846 299.189 452.441C286.358 443.035 271.828 442.181 264.989 452.441Z" fill="#2B3554"/>
<path d="M300.902 492.63C300.902 492.63 290.64 465.267 308.596 453.295C326.553 441.324 340.234 443.033 344.51 462.7C348.785 482.368 349.641 549.919 343.654 563.601C337.668 577.283 316.292 555.904 300.902 492.63Z" fill="#2B3F63"/>
<path d="M280.463 320.344C280.463 320.344 282.374 313.634 284.084 313.064C285.795 312.494 306.886 310.213 318.287 317.053C323.416 321.044 322.846 323.895 322.846 323.895C322.846 323.895 288.815 317.364 280.463 320.344Z" fill="white"/>
<path d="M343.142 452.438C343.142 452.438 344.859 456.558 343.828 457.932C342.454 459.305 303.664 473.036 262.806 463.082C262.118 463.082 263.835 456.215 263.835 456.215L343.142 452.438Z" fill="#6060E7"/>
<path d="M262.421 390.589C261.281 382.609 257.86 343.275 259.001 337.574C260.07 332.247 264.618 322.437 274.052 319.315C274.725 319.093 275.41 318.909 276.103 318.762C276.103 318.762 311.446 316.481 336.53 327.316C336.53 327.316 345.114 334.444 346.703 370.787C346.703 370.787 346.227 376.916 344.858 389.961C343.488 403.007 345.543 412.62 347.604 425.664C349.666 438.709 353.782 451.755 338.679 454.502C324.26 457.249 284.437 464.113 261.093 457.249C256.288 453.814 263.154 438.022 263.154 425.664C263.154 413.307 262.421 390.589 262.421 390.589Z" fill="#8182EE"/>
<path d="M317.148 553.34C316.987 549.865 318.123 546.453 320.334 543.767C322.546 541.082 325.676 539.313 329.118 538.804C341.948 536.238 343.654 542.224 346.225 553.34C348.796 564.456 333.583 661.401 333.583 661.401C333.583 661.401 316.799 662.368 313.378 659.802C313.378 659.802 309.458 592.68 312.023 576.428C314.588 560.176 317.148 553.34 317.148 553.34Z" fill="#2B3F63"/>
<path d="M297.485 486.216C297.485 486.216 309.456 524.695 318.436 543.507" stroke="#2A2E59" stroke-width="0.791208" stroke-miterlimit="10"/>
<path d="M321.849 551.202C321.849 551.202 329.118 546.925 336.386 551.202" stroke="#2A2E59" stroke-width="0.791208" stroke-miterlimit="10"/>
<path d="M320.567 555.905C320.567 555.905 326.553 552.485 336.813 559.753" stroke="#2A2E59" stroke-width="0.791208" stroke-miterlimit="10"/>
<path d="M275.676 546.071C275.676 546.071 280.379 541.794 291.068 546.499" stroke="#2A2E59" stroke-width="0.791208" stroke-miterlimit="10"/>
<path d="M279.096 550.346C281.25 549.389 283.625 549.042 285.962 549.344C288.3 549.646 290.509 550.584 292.349 552.057" stroke="#2A2E59" stroke-width="0.791208" stroke-miterlimit="10"/>
<path d="M294.914 557.188L292.349 644.407" stroke="#2A2E59" stroke-width="0.791208" stroke-miterlimit="10"/>
<path d="M330.259 484.077C330.259 484.077 339.949 489.779 343.94 480.657" stroke="#2A2E59" stroke-width="0.791208" stroke-miterlimit="10"/>
<path d="M339.948 485.219C339.948 485.219 344.508 520.562 343.368 543.935" stroke="#2A2E59" stroke-width="0.791208" stroke-miterlimit="10"/>
<path d="M310.52 302.159C310.52 302.159 313.513 309.856 323.559 308.574" stroke="#E66657" stroke-width="0.791208" stroke-miterlimit="10"/>
<path d="M323.417 254.66C323.417 254.66 328.288 261.357 328.592 265.313C328.896 269.269 322.503 273.228 321.591 275.664C320.678 278.101 322.769 281.158 321.857 282.681C321.198 284.146 320.791 285.713 320.655 287.314L320.968 290.759C321.024 291.368 320.852 291.975 320.486 292.465C320.12 292.954 319.586 293.291 318.987 293.411L318.257 293.556C317.75 293.66 317.221 293.582 316.765 293.336C316.309 293.09 315.954 292.691 315.763 292.21C314.667 289.459 312.405 284.322 310.632 283.879C308.195 283.271 305.761 287.531 304.847 289.661C304.333 290.864 303.039 294.108 302.008 296.711C301.565 297.826 300.817 298.792 299.849 299.5C298.881 300.208 297.732 300.628 296.536 300.711C294.226 300.975 291.894 300.971 289.585 300.699C287.455 300.091 276.54 279.921 276.233 270.18C275.927 260.44 282.626 250.697 289.627 247.655C296.627 244.612 310.329 241.878 323.417 254.66Z" fill="#7E3636"/>
<path d="M274.105 339.275C274.105 342.016 285.577 383.336 283.751 390.642C281.925 397.948 276.885 449.006 276.885 449.006" stroke="#6060E7" stroke-width="0.791208" stroke-miterlimit="10"/>
<path d="M305.894 241.4C305.894 241.4 312.589 241.657 314.906 238.311C317.223 234.966 324.69 234.191 330.097 239.598C335.504 245.005 335.246 255.042 330.611 258.651C330.611 258.651 336.018 257.621 336.789 261.485C337.56 265.348 330.868 271.267 322.889 273.07C322.889 273.07 310.015 269.467 306.154 271.783C302.293 274.1 276.286 271.526 276.286 271.526C276.286 271.526 270.622 266.376 272.166 261.741C273.711 257.107 275.255 261.999 275.255 261.999C275.255 261.999 273.966 255.562 282.464 246.294C290.962 237.025 302.804 242.172 305.894 241.4Z" fill="#7E3636"/>
<path d="M432.312 379.403L450.592 380.176C450.592 380.176 450.077 381.977 447.244 382.492C444.412 383.008 433.857 384.294 433.857 384.294L432.312 379.403Z" fill="#EB7754"/>
<path d="M434.63 383.261C434.63 383.261 440.808 382.231 442.096 382.489C443.383 382.747 444.671 390.211 444.671 390.211L439.779 395.361C439.779 395.361 437.976 394.589 439.779 391.756L440.809 389.952L433.341 387.121L434.63 383.261Z" fill="#FF8D68"/>
<path d="M416.864 387.643L424.586 386.614C424.586 386.614 431.022 380.178 432.308 379.406C433.593 378.633 440.03 388.672 440.803 389.961C440.803 390.991 436.941 394.339 433.081 394.853C429.221 395.368 427.931 394.339 427.931 394.339L419.436 397.687L416.864 387.643Z" fill="#FF8D68"/>
<path d="M336.53 327.314C336.53 327.314 319.282 327.137 319.798 348.25C320.314 369.363 356.359 403.863 366.143 407.982C375.928 412.101 417.637 400.774 421.24 398.716C424.843 396.658 423.816 387.905 418.151 385.844L375.412 383.78C375.412 383.78 348.625 329.034 336.53 327.314Z" fill="white"/>
<path d="M376.096 387.212C376.096 387.212 381.246 392.706 379.873 399.915" stroke="#A6D0F4" stroke-width="0.63558" stroke-miterlimit="10"/>
<path d="M378.843 386.185C378.843 386.185 387.425 388.931 388.109 398.199" stroke="#A6D0F4" stroke-width="0.63558" stroke-miterlimit="10"/>
<path d="M334.387 284.868H316.536" stroke="#505E83" stroke-width="0.616572" stroke-miterlimit="10"/>
<path d="M318.646 286.993C318.646 286.993 317.433 281.731 312.981 284.16C308.53 286.588 313.79 299.129 317.433 298.322C321.075 297.515 319.455 289.016 318.646 286.993Z" fill="#FF7759"/>
<path d="M281.434 262.255C281.434 262.255 293.789 259.422 302.546 268.69" stroke="#663136" stroke-width="0.63558" stroke-miterlimit="10"/>
<path d="M283.064 260.365C284.975 258.613 287.311 257.39 289.84 256.818C292.369 256.247 295.003 256.345 297.483 257.104" stroke="#663136" stroke-width="0.63558" stroke-miterlimit="10"/>
<path d="M281.864 264.656C283.202 264.902 284.468 265.446 285.567 266.248C286.667 267.051 287.571 268.09 288.214 269.289" stroke="#663136" stroke-width="0.63558" stroke-miterlimit="10"/>
<path d="M319.281 240.11C319.281 240.11 331.637 243.974 328.808 255.301" stroke="#663136" stroke-width="0.63558" stroke-miterlimit="10"/>
</g>
<defs>
<linearGradient id="paint0_linear_143_2397" x1="317.049" y1="391.537" x2="683.079" y2="391.537" gradientUnits="userSpaceOnUse">
<stop stop-color="white" stop-opacity="0.2"/>
<stop offset="1" stop-color="white" stop-opacity="0.702"/>
</linearGradient>
<clipPath id="clip0_143_2397">
<rect width="790.2" height="728.1" fill="white" transform="translate(14.9 21.4502)"/>
</clipPath>
</defs>
</svg>
